<svg width="218" height="185" viewBox="0 0 218 185" fill="none" xmlns="http://www.w3.org/2000/svg">
<path d="M96.5469 87.7969L96.5547 87.8008C96.5547 87.7969 96.5469 87.7969 96.5469 87.7969ZM95.0977 86.7188C94.9844 86.6562 94.875 86.6016 94.7617 86.5469C94.875 86.6016 94.9883 86.6562 95.0977 86.7188ZM130.793 140.484L92.1758 101.867L56.0586 137.984C53.3789 140.66 49.043 140.66 46.3633 137.984C43.6875 135.309 43.6875 130.969 46.3633 128.293L84.7031 89.9531L82.0273 87.2734L79.0508 90.2422C76.7812 92.5117 73.0977 92.5117 70.8242 90.2422L42.7227 62.1406C41.5703 60.9922 41.5703 59.125 42.7227 57.9766C43.8711 56.8281 45.7344 56.8281 46.8789 57.9766L64.2383 75.332L67.707 71.8633L50.3516 54.5117C49.2031 53.3633 49.2031 51.4961 50.3516 50.3516C51.5 49.1992 53.3594 49.1992 54.5117 50.3516L71.8633 67.707L75.3359 64.2383L57.9766 46.8789C56.8281 45.7305 56.8281 43.8711 57.9766 42.7227C59.125 41.5703 60.9883 41.5703 62.1367 42.7227L83.6094 64.1953L87.125 67.707L90.2422 70.8242C92.5156 73.0977 92.5156 76.7812 90.2422 79.0547L87.2695 82.0234L91.0977 85.8477C91.7812 85.7891 92.4727 85.8125 93.1445 85.9531L99.5781 79.5234L104.828 84.7734L99.6094 89.9883C99.7305 90.0938 99.8672 90.1797 99.9883 90.2969L140.484 130.793C143.16 133.469 143.16 137.805 140.484 140.484C137.805 143.16 133.469 143.16 130.793 140.484Z" fill="#EEEBDD"/>
<path d="M101.637 57.9141C108.18 51.3789 131.078 39.5781 137.926 46.4297C144.77 53.2695 132.973 76.1719 126.437 82.711C119.895 89.2461 109.051 88.9961 102.199 82.1485C95.3515 75.3008 95.1015 64.4531 101.637 57.9141Z" fill="#EEEBDD"/>
<path d="M157.355 97.8125C159.262 97.8125 160.812 96.2578 160.812 94.3516C160.812 92.4492 159.262 90.8984 157.355 90.8984C155.453 90.8984 153.902 92.4492 153.902 94.3516C153.902 96.2578 155.453 97.8125 157.355 97.8125ZM150.023 94.3516C150.023 90.3086 153.312 87.0195 157.355 87.0195C161.398 87.0195 164.688 90.3086 164.688 94.3516C164.688 98.3945 161.398 101.688 157.355 101.688C153.312 101.688 150.023 98.3945 150.023 94.3516Z" fill="#EEEBDD"/>
<path d="M27.5469 90.8984C25.6406 90.8984 24.0898 92.4492 24.0898 94.3516C24.0898 96.2578 25.6406 97.8125 27.5469 97.8125C29.4492 97.8125 31 96.2578 31 94.3516C31 92.4492 29.4492 90.8984 27.5469 90.8984ZM34.875 94.3516C34.875 98.3945 31.5859 101.688 27.5469 101.688C23.5 101.688 20.2109 98.3945 20.2109 94.3516C20.2109 90.3086 23.5 87.0195 27.5469 87.0195C31.5859 87.0195 34.875 90.3086 34.875 94.3516Z" fill="#EEEBDD"/>
<path d="M155.238 82.3555C155.117 82.3789 154.996 82.3906 154.879 82.3906C153.965 82.3906 153.148 81.7383 152.98 80.8047C151.789 74.4297 149.617 68.3125 146.512 62.6211C146 61.6797 146.348 60.5039 147.289 59.9883C148.23 59.4805 149.41 59.8203 149.918 60.7656C153.219 66.8164 155.531 73.3203 156.789 80.0977C156.984 81.1446 156.293 82.1641 155.238 82.3555Z" fill="#EEEBDD"/>
<path d="M118.98 36.2187C118.703 36.2187 118.426 36.1562 118.164 36.039C101.961 28.5234 82.8437 28.4648 66.5976 35.8476C65.6172 36.2929 64.4726 35.871 64.0273 34.8906C63.5859 33.914 64.0195 32.7656 64.9922 32.3203C82.2617 24.4648 102.574 24.5351 119.789 32.5195C120.766 32.9687 121.187 34.1249 120.738 35.0898C120.41 35.8007 119.707 36.2187 118.98 36.2187Z" fill="#EEEBDD"/>
<path d="M31.3749 80.8046C31.203 81.7381 30.3866 82.3905 29.4725 82.3905C29.3553 82.3905 29.2342 82.3788 29.1171 82.3553C28.0624 82.1639 27.3671 81.1522 27.5663 80.0975C28.5272 74.9022 30.1288 69.828 32.3202 64.9999C32.7655 64.0311 33.91 63.6053 34.8866 64.0389C35.8592 64.4803 36.2889 65.6288 35.8475 66.6053C33.785 71.1444 32.2811 75.9256 31.3749 80.8046Z" fill="#EEEBDD"/>
<path d="M39.125 129.531C38.5 129.531 37.8867 129.23 37.5156 128.676C33.5156 122.699 30.5508 116.168 28.6953 109.254C28.4179 108.215 29.0351 107.156 30.0703 106.879C31.1054 106.633 32.164 107.215 32.4453 108.246C34.1875 114.75 36.9726 120.898 40.7304 126.52C41.3359 127.406 41.0937 128.613 40.2031 129.207C39.8711 129.43 39.4961 129.531 39.125 129.531Z" fill="#EEEBDD"/>
<path d="M58.6561 144.156C68.6405 150.609 80.2342 154.016 92.1756 154.016C104.566 154.016 116.519 150.367 126.75 143.461C127.637 142.859 128.836 143.094 129.441 143.977C130.043 144.871 129.812 146.07 128.922 146.668C118.047 154.016 105.34 157.891 92.1756 157.891C79.4842 157.891 67.1678 154.27 56.5545 147.41C55.6561 146.832 55.3944 145.633 55.9803 144.734C56.5585 143.836 57.7616 143.574 58.6561 144.156Z" fill="#EEEBDD"/>
<path d="M145.313 129.406C144.938 129.406 144.57 129.301 144.238 129.082C143.348 128.492 143.106 127.285 143.699 126.391C147.434 120.781 150.203 114.641 151.934 108.148C152.211 107.117 153.258 106.508 154.309 106.773C155.344 107.051 155.957 108.113 155.684 109.148C153.836 116.051 150.895 122.578 146.926 128.543C146.555 129.105 145.938 129.406 145.313 129.406Z" fill="#EEEBDD"/>
<path d="M209.469 108.434H178.949C178.164 112.641 177.078 116.734 175.715 120.711H209.469V108.434ZM183.906 83.6719C184.203 86.6055 184.352 89.4258 184.352 92.1758C184.352 94.9258 184.203 97.7422 183.906 100.68H209.746V83.6719H183.906ZM178.949 75.9141H209.469V63.6367H175.715C177.078 67.6133 178.164 71.7109 178.949 75.9141ZM171.059 122.211C171.078 122.129 171.059 122.043 171.086 121.961C173.012 116.875 174.438 111.562 175.344 106.176C175.371 106.027 175.434 105.895 175.492 105.758C176.207 101.332 176.602 96.8008 176.602 92.1758C176.602 87.5508 176.207 83.0156 175.492 78.5938C175.434 78.457 175.371 78.3281 175.344 78.1758C174.438 72.7852 173.012 67.4727 171.086 62.3828C171.059 62.3047 171.078 62.2188 171.059 62.1406C158.922 30.375 128.145 7.75391 92.1758 7.75391C45.6211 7.75391 7.75391 45.625 7.75391 92.1758C7.75391 138.727 45.6211 176.598 92.1758 176.598C128.145 176.598 158.922 153.973 171.059 122.211ZM92.1758 0C128.879 0 162.395 22.2969 176.824 55.8867L209.746 55.8828V10.668C209.746 8.52344 211.48 6.78906 213.621 6.78906C215.766 6.78906 217.5 8.52344 217.5 10.668V173.684C217.5 175.824 215.766 177.559 213.621 177.559C211.48 177.559 209.746 175.824 209.746 173.684V128.461H176.824C162.395 162.055 128.879 184.352 92.1758 184.352C41.3477 184.352 0 143 0 92.1758C0 41.3477 41.3477 0 92.1758 0Z" fill="#EEEBDD"/>
</svg>
