<svg width="388" height="86" viewBox="0 0 388 86" fill="none" xmlns="http://www.w3.org/2000/svg">
<g clip-path="url(#clip0_556_502)">
<path d="M45.0387 40.957L45.0424 40.9588C45.0424 40.957 45.0387 40.957 45.0387 40.957ZM44.3627 40.454C44.3098 40.4249 44.2588 40.3994 44.2059 40.3739C44.2588 40.3994 44.3116 40.4249 44.3627 40.454ZM61.0145 65.5356L42.9996 47.5208L26.151 64.3694C24.9009 65.6176 22.8782 65.6176 21.6281 64.3694C20.3799 63.1211 20.3799 61.0966 21.6281 59.8484L39.5136 41.9629L38.2654 40.7128L36.8768 42.0977C35.8181 43.1564 34.0997 43.1564 33.0391 42.0977L19.9298 28.9884C19.3922 28.4526 19.3922 27.5816 19.9298 27.0458C20.4655 26.5101 21.3347 26.5101 21.8687 27.0458L29.9668 35.1421L31.585 33.524L23.4887 25.4295C22.9529 24.8937 22.9529 24.0227 23.4887 23.4888C24.0244 22.9512 24.8918 22.9512 25.4294 23.4888L33.5239 31.5851L35.1438 29.9669L27.0457 21.8688C26.51 21.333 26.51 20.4657 27.0457 19.9299C27.5815 19.3923 28.4507 19.3923 28.9864 19.9299L39.0034 29.9469L40.6434 31.5851L42.0976 33.0393C43.1581 34.0998 43.1581 35.8182 42.0976 36.8788L40.7109 38.2637L42.4967 40.0477C42.8156 40.0203 43.1381 40.0313 43.4515 40.0969L46.4528 37.0974L48.9019 39.5465L46.4674 41.9793C46.5239 42.0285 46.5876 42.0686 46.6441 42.1232L65.5355 61.0146C66.7838 62.2629 66.7838 64.2856 65.5355 65.5356C64.2854 66.7839 62.2627 66.7839 61.0145 65.5356Z" fill="#EEEBDD"/>
<path d="M47.4133 27.0167C50.4656 23.9681 61.1477 18.463 64.3421 21.6593C67.5347 24.8501 62.0315 35.534 58.9828 38.5844C55.9305 41.6331 50.8719 41.5165 47.6757 38.322C44.4813 35.1276 44.3646 30.0672 47.4133 27.0167Z" fill="#EEEBDD"/>
<path d="M73.406 45.6293C74.2952 45.6293 75.0187 44.904 75.0187 44.0147C75.0187 43.1273 74.2952 42.4039 73.406 42.4039C72.5185 42.4039 71.7951 43.1273 71.7951 44.0147C71.7951 44.904 72.5185 45.6293 73.406 45.6293ZM69.9856 44.0147C69.9856 42.1287 71.5199 40.5944 73.406 40.5944C75.292 40.5944 76.8264 42.1287 76.8264 44.0147C76.8264 45.9008 75.292 47.437 73.406 47.437C71.5199 47.437 69.9856 45.9008 69.9856 44.0147Z" fill="#EEEBDD"/>
<path d="M12.8504 42.4039C11.9612 42.4039 11.2377 43.1273 11.2377 44.0147C11.2377 44.904 11.9612 45.6293 12.8504 45.6293C13.7379 45.6293 14.4613 44.904 14.4613 44.0147C14.4613 43.1273 13.7379 42.4039 12.8504 42.4039ZM16.269 44.0147C16.269 45.9008 14.7346 47.437 12.8504 47.437C10.9626 47.437 9.42822 45.9008 9.42822 44.0147C9.42822 42.1287 10.9626 40.5944 12.8504 40.5944C14.7346 40.5944 16.269 42.1287 16.269 44.0147Z" fill="#EEEBDD"/>
<path d="M72.4184 38.4186C72.3619 38.4295 72.3054 38.435 72.2507 38.435C71.8243 38.435 71.4435 38.1307 71.3651 37.6951C70.8093 34.7212 69.7961 31.8676 68.3474 29.2125C68.1087 28.7734 68.2709 28.2249 68.7101 27.9843C69.1492 27.7474 69.6996 27.906 69.9364 28.347C71.4763 31.1696 72.555 34.2037 73.1418 37.3653C73.2329 37.8537 72.9104 38.3293 72.4184 38.4186Z" fill="#EEEBDD"/>
<path d="M55.504 16.8959C55.3747 16.8959 55.2453 16.8667 55.1232 16.812C47.5644 13.306 38.6463 13.2787 31.0675 16.7227C30.6101 16.9305 30.0762 16.7337 29.8685 16.2763C29.6626 15.8207 29.8648 15.285 30.3186 15.0772C38.3748 11.4127 47.8505 11.4455 55.8812 15.1702C56.3368 15.3797 56.5336 15.9191 56.324 16.3692C56.171 16.7009 55.843 16.8959 55.504 16.8959Z" fill="#EEEBDD"/>
<path d="M14.6363 37.6952C14.5562 38.1307 14.1753 38.435 13.7489 38.435C13.6942 38.435 13.6377 38.4295 13.5831 38.4186C13.0911 38.3293 12.7667 37.8573 12.8596 37.3653C13.3079 34.9417 14.055 32.5746 15.0773 30.3223C15.2851 29.8704 15.819 29.6717 16.2746 29.874C16.7283 30.0799 16.9287 30.6157 16.7228 31.0712C15.7607 33.1887 15.0591 35.4192 14.6363 37.6952Z" fill="#EEEBDD"/>
<path d="M18.2516 60.426C17.9601 60.426 17.674 60.2857 17.5009 60.0269C15.6349 57.2389 14.2518 54.1921 13.3862 50.9667C13.2568 50.4819 13.5447 49.9881 14.0276 49.8587C14.5105 49.7439 15.0044 50.0154 15.1356 50.4965C15.9483 53.5306 17.2476 56.3988 19.0006 59.021C19.283 59.4347 19.17 59.9978 18.7546 60.2748C18.5997 60.3786 18.4247 60.426 18.2516 60.426Z" fill="#EEEBDD"/>
<path d="M27.3631 67.2486C32.0208 70.259 37.4292 71.848 42.9999 71.848C48.7801 71.848 54.3562 70.146 59.1287 66.9242C59.5424 66.6436 60.1018 66.7529 60.3843 67.1648C60.6649 67.5821 60.5574 68.1415 60.1419 68.4203C55.0687 71.848 49.1409 73.6557 42.9999 73.6557C37.0794 73.6557 31.3338 71.9664 26.3827 68.7665C25.9636 68.4968 25.8415 67.9374 26.1148 67.5183C26.3845 67.0992 26.9458 66.9771 27.3631 67.2486Z" fill="#EEEBDD"/>
<path d="M67.7879 60.3677C67.6129 60.3677 67.4416 60.3185 67.2867 60.2165C66.8713 59.9413 66.7583 59.3782 67.0353 58.9609C68.7773 56.3441 70.0693 53.4796 70.8766 50.451C71.006 49.9699 71.4943 49.6856 71.9845 49.8095C72.4674 49.9389 72.7535 50.4346 72.626 50.9175C71.764 54.1374 70.3919 57.1824 68.5405 59.965C68.3673 60.2274 68.0794 60.3677 67.7879 60.3677Z" fill="#EEEBDD"/>
<path d="M97.7167 50.5839H83.4794C83.1131 52.5465 82.6065 54.4562 81.9705 56.3113H97.7167V50.5839ZM85.7918 39.0326C85.9303 40.4011 85.9995 41.7168 85.9995 42.9997C85.9995 44.2825 85.9303 45.5964 85.7918 46.9667H97.8461V39.0326H85.7918ZM83.4794 35.4136H97.7167V29.6862H81.9705C82.6065 31.5413 83.1131 33.4528 83.4794 35.4136ZM79.7984 57.011C79.8075 56.9728 79.7984 56.9327 79.8111 56.8944C80.7095 54.5218 81.3746 52.0435 81.7974 49.5306C81.8102 49.4614 81.8393 49.3994 81.8667 49.3357C82.2001 47.271 82.3842 45.1572 82.3842 42.9997C82.3842 40.8421 82.2001 38.7264 81.8667 36.6636C81.8393 36.5999 81.8102 36.5397 81.7974 36.4687C81.3746 33.9539 80.7095 31.4757 79.8111 29.1013C79.7984 29.0648 79.8075 29.0247 79.7984 28.9883C74.1366 14.1697 59.779 3.61694 42.9997 3.61694C21.2819 3.61694 3.61694 21.2838 3.61694 42.9997C3.61694 64.7155 21.2819 82.3824 42.9997 82.3824C59.779 82.3824 74.1366 71.8278 79.7984 57.011ZM42.9997 -0.000244141C60.1216 -0.000244141 75.7566 10.4012 82.4881 26.0708L97.8461 26.069V4.97635C97.8461 3.97593 98.6552 3.16685 99.6538 3.16685C100.654 3.16685 101.463 3.97593 101.463 4.97635V81.023C101.463 82.0216 100.654 82.8306 99.6538 82.8306C98.6552 82.8306 97.8461 82.0216 97.8461 81.023V59.9266H82.4881C75.7566 75.5981 60.1216 85.9995 42.9997 85.9995C19.2884 85.9995 -0.000244141 66.7091 -0.000244141 42.9997C-0.000244141 19.2884 19.2884 -0.000244141 42.9997 -0.000244141Z" fill="#EEEBDD"/>
<path d="M113.328 40.1714V32.6563L115.872 32.6782C115.945 35.182 116.668 37.0334 118.044 38.2325C119.424 39.4333 121.521 40.0329 124.335 40.0329C126.959 40.0329 128.958 39.5153 130.334 38.4803C131.713 37.4416 132.404 35.9273 132.404 33.9392C132.404 32.3466 131.984 31.122 131.15 30.2655C130.319 29.4109 128.562 28.58 125.88 27.7727L121.528 26.468C118.374 25.5113 116.153 24.3177 114.866 22.889C113.578 21.4567 112.935 19.496 112.935 17.0068C112.935 14.2078 113.928 12.0356 115.916 10.4904C117.902 8.94144 120.694 8.16516 124.291 8.16516C125.822 8.16516 127.5 8.33099 129.328 8.66082C131.154 8.99247 133.1 9.47537 135.166 10.1113V17.138H132.666C132.418 14.8109 131.64 13.1272 130.334 12.0867C129.031 11.048 127.046 10.5268 124.378 10.5268C122.05 10.5268 120.278 11.0042 119.065 11.9555C117.849 12.9085 117.242 14.2916 117.242 16.1029C117.242 17.6774 117.698 18.9147 118.613 19.8131C119.526 20.7133 121.463 21.6043 124.422 22.4881L128.511 23.7054C131.503 24.6056 133.637 25.7518 134.911 27.1458C136.183 28.5362 136.821 30.4022 136.821 32.7438C136.821 35.9419 135.795 38.3527 133.745 39.9745C131.698 41.5927 128.652 42.4018 124.604 42.4018C122.791 42.4018 120.945 42.2159 119.065 41.8478C117.184 41.4797 115.271 40.9203 113.328 40.1714Z" fill="#EEEBDD"/>
<path d="M164.674 30.4405H147.144V30.6227C147.144 33.7916 147.738 36.1824 148.93 37.7951C150.125 39.4097 151.889 40.2151 154.221 40.2151C156 40.2151 157.46 39.7486 158.602 38.8156C159.743 37.879 160.543 36.4886 161 34.6463H164.273C163.626 37.2229 162.429 39.1582 160.68 40.4556C158.934 41.7531 156.641 42.4018 153.799 42.4018C150.362 42.4018 147.603 41.272 145.518 39.0124C143.434 36.7491 142.391 33.7461 142.391 30.0031C142.391 26.2912 143.414 23.3009 145.46 21.0303C147.51 18.7616 150.202 17.6263 153.536 17.6263C157.082 17.6263 159.807 18.7197 161.707 20.9064C163.612 23.0931 164.601 26.2711 164.674 30.4405ZM159.878 28.1007C159.79 25.36 159.211 23.2954 158.143 21.905C157.073 20.511 155.537 19.8131 153.536 19.8131C151.659 19.8131 150.185 20.5128 149.112 21.9123C148.037 23.3118 147.381 25.3746 147.144 28.1007H159.878Z" fill="#EEEBDD"/>
<path d="M190.376 22.838C191.157 21.1178 192.156 19.8203 193.371 18.9457C194.585 18.0673 196.005 17.6263 197.628 17.6263C200.086 17.6263 201.918 18.3899 203.124 19.9151C204.334 21.4367 204.939 23.7382 204.939 26.8178V39.4206H208.613V41.7604H197.337V39.4206H200.879V27.2843C200.879 24.8844 200.524 23.177 199.815 22.1601C199.104 21.1397 197.934 20.6294 196.302 20.6294C194.489 20.6294 193.105 21.3146 192.154 22.6849C191.207 24.0553 190.733 26.0525 190.733 28.6765V39.4206H194.268V41.7604H183.13V39.4206H186.666V27.1313C186.666 24.7897 186.31 23.1205 185.601 22.1237C184.896 21.1287 183.724 20.6294 182.088 20.6294C180.275 20.6294 178.892 21.3146 177.941 22.6849C176.993 24.0553 176.519 26.0525 176.519 28.6765V39.4206H180.054V41.7604H168.786V39.4206H172.452V20.5857H168.56V18.2678H176.519V22.4444C177.272 20.8809 178.228 19.6873 179.391 18.8655C180.557 18.04 181.877 17.6263 183.349 17.6263C185.175 17.6263 186.698 18.0819 187.919 18.9894C189.144 19.8932 189.962 21.1761 190.376 22.838Z" fill="#EEEBDD"/>
<path d="M219.135 28.8515V31.1767C219.135 34.0048 219.674 36.1606 220.753 37.6421C221.836 39.1199 223.41 39.8579 225.477 39.8579C227.55 39.8579 229.123 39.027 230.193 37.3651C231.26 35.6995 231.796 33.2449 231.796 30.0031C231.796 26.7486 231.26 24.2958 230.193 22.6485C229.123 20.9975 227.55 20.1702 225.477 20.1702C223.41 20.1702 221.836 20.9137 220.753 22.4007C219.674 23.8876 219.135 26.0379 219.135 28.8515ZM215.068 20.6294H211.154V18.2678H219.135V21.9342C219.926 20.4618 220.937 19.3757 222.167 18.676C223.401 17.9762 224.924 17.6263 226.738 17.6263C229.624 17.6263 231.98 18.7689 233.808 21.0522C235.634 23.3373 236.549 26.3204 236.549 30.0031C236.549 33.6878 235.634 36.6763 233.808 38.9687C231.98 41.2574 229.624 42.4018 226.738 42.4018C224.924 42.4018 223.401 42.0519 222.167 41.3522C220.937 40.6524 219.926 39.5664 219.135 38.094V48.8089H222.976V51.1778H211.154V48.8089H215.068V20.6294Z" fill="#EEEBDD"/>
<path d="M248.111 39.4205H251.952V41.7603H240.129V39.4205H244.043V9.71039H240.129V7.37061H248.111V39.4205Z" fill="#EEEBDD"/>
<path d="M257.697 10.9714C257.697 10.2971 257.945 9.70852 258.44 9.2074C258.936 8.70264 259.528 8.44934 260.219 8.44934C260.899 8.44934 261.484 8.70264 261.976 9.2074C262.471 9.70852 262.719 10.2971 262.719 10.9714C262.719 11.6675 262.475 12.2579 261.99 12.7426C261.504 13.2291 260.913 13.4715 260.219 13.4715C259.528 13.4715 258.936 13.2291 258.44 12.7426C257.945 12.2579 257.697 11.6675 257.697 10.9714ZM262.894 39.4205H266.743V41.7603H254.934V39.4205H258.827V20.6293H254.934V18.2677H262.894V39.4205Z" fill="#EEEBDD"/>
<path d="M291.052 34.7119C290.478 37.2156 289.372 39.1217 287.736 40.4338C286.103 41.7458 283.989 42.4018 281.394 42.4018C277.972 42.4018 275.222 41.272 273.143 39.0124C271.067 36.7491 270.031 33.7461 270.031 30.0031C270.031 26.2475 271.067 23.2462 273.143 21.0012C275.222 18.7525 277.972 17.6263 281.394 17.6263C282.881 17.6263 284.361 17.7995 285.833 18.1439C287.309 18.4901 288.792 19.0167 290.279 19.7256V25.739H287.911C287.604 23.6744 286.93 22.1711 285.891 21.2271C284.851 20.285 283.366 19.8131 281.438 19.8131C279.24 19.8131 277.582 20.6641 276.459 22.3642C275.341 24.0662 274.783 26.6119 274.783 30.0031C274.783 33.3907 275.339 35.9401 276.452 37.6493C277.564 39.3605 279.226 40.2151 281.438 40.2151C283.191 40.2151 284.59 39.7595 285.636 38.8448C286.68 37.9318 287.395 36.5542 287.779 34.7119H291.052Z" fill="#EEEBDD"/>
<path d="M317.664 30.4405H300.134V30.6227C300.134 33.7916 300.728 36.1824 301.92 37.7951C303.115 39.4097 304.879 40.2151 307.212 40.2151C308.99 40.2151 310.45 39.7486 311.592 38.8156C312.733 37.879 313.533 36.4886 313.991 34.6463H317.263C316.616 37.2229 315.419 39.1582 313.67 40.4556C311.924 41.7531 309.632 42.4018 306.789 42.4018C303.352 42.4018 300.593 41.272 298.509 39.0124C296.424 36.7491 295.382 33.7461 295.382 30.0031C295.382 26.2912 296.404 23.3009 298.45 21.0303C300.5 18.7616 303.192 17.6263 306.527 17.6263C310.073 17.6263 312.797 18.7197 314.698 20.9064C316.602 23.0931 317.591 26.2711 317.664 30.4405ZM312.868 28.1007C312.781 25.36 312.201 23.2954 311.133 21.905C310.064 20.511 308.527 19.8131 306.527 19.8131C304.65 19.8131 303.175 20.5128 302.102 21.9123C301.027 23.3118 300.371 25.3746 300.134 28.1007H312.868Z" fill="#EEEBDD"/>
<path d="M358.068 39.4205H361.953V41.7603H354V38.0939C353.202 39.5663 352.189 40.6524 350.961 41.3521C349.731 42.0519 348.209 42.4018 346.398 42.4018C343.506 42.4018 341.142 41.2574 339.306 38.9686C337.472 36.6762 336.558 33.6877 336.558 30.0031C336.558 26.3203 337.471 23.3373 339.298 21.0521C341.124 18.7688 343.491 17.6263 346.398 17.6263C348.209 17.6263 349.731 17.9762 350.961 18.6759C352.189 19.3757 353.202 20.4617 354 21.9341V9.71039H350.152V7.37061H358.068V39.4205ZM354 31.1766V28.8514C354 26.0378 353.457 23.8876 352.375 22.4006C351.291 20.9136 349.716 20.1702 347.652 20.1702C345.561 20.1702 343.982 20.9975 342.914 22.6484C341.844 24.2958 341.31 26.7485 341.31 30.0031C341.31 33.2449 341.844 35.6995 342.914 37.365C343.982 39.0269 345.561 39.8579 347.652 39.8579C349.716 39.8579 351.291 39.1199 352.375 37.642C353.457 36.1605 354 34.0048 354 31.1766Z" fill="#EEEBDD"/>
<path d="M387.816 30.4405H370.286V30.6227C370.286 33.7916 370.88 36.1824 372.072 37.7951C373.267 39.4097 375.031 40.2151 377.364 40.2151C379.142 40.2151 380.602 39.7486 381.744 38.8156C382.885 37.879 383.685 36.4886 384.142 34.6463H387.415C386.768 37.2229 385.571 39.1582 383.822 40.4556C382.076 41.7531 379.784 42.4018 376.941 42.4018C373.504 42.4018 370.745 41.272 368.66 39.0124C366.576 36.7491 365.533 33.7461 365.533 30.0031C365.533 26.2912 366.556 23.3009 368.602 21.0303C370.652 18.7616 373.344 17.6263 376.678 17.6263C380.225 17.6263 382.949 18.7197 384.849 20.9064C386.754 23.0931 387.743 26.2711 387.816 30.4405ZM383.02 28.1007C382.932 25.36 382.353 23.2954 381.285 21.905C380.215 20.511 378.679 19.8131 376.678 19.8131C374.801 19.8131 373.327 20.5128 372.254 21.9123C371.179 23.3118 370.523 25.3746 370.286 28.1007H383.02Z" fill="#EEEBDD"/>
<path d="M117.527 68.2346C117.924 68.3421 118.267 68.5261 118.554 68.7885C118.841 69.0473 119.097 69.4117 119.327 69.8819L121.186 73.6722H122.746V74.576H119.728L117.738 70.5088C117.354 69.7215 117.002 69.2149 116.681 68.9853C116.364 68.7521 115.927 68.6355 115.369 68.6355H113.459V73.6722H115.267V74.576H110.099V73.6722H111.725V62.7168H110.099V61.7983H116.572C117.815 61.7983 118.775 62.0972 119.451 62.6949C120.125 63.289 120.464 64.129 120.464 65.2169C120.464 66.0971 120.216 66.7895 119.721 67.2943C119.229 67.7954 118.498 68.1088 117.527 68.2346ZM113.459 67.7243H115.981C116.841 67.7243 117.477 67.5202 117.891 67.1121C118.303 66.7039 118.511 66.0734 118.511 65.2169C118.511 64.3623 118.303 63.7336 117.891 63.329C117.477 62.9209 116.841 62.7168 115.981 62.7168H113.459V67.7243Z" fill="#EEEBDD"/>
<path d="M140.672 73.6722H142.297V74.576H137.311V73.6722H138.937V62.7168H137.311V61.7983H142.297V62.7168H140.672V73.6722Z" fill="#EEEBDD"/>
<path d="M158.908 73.9565V71.0481L159.892 71.0627C159.922 72.0303 160.2 72.7465 160.731 73.213C161.265 73.6758 162.079 73.9055 163.173 73.9055C164.188 73.9055 164.96 73.7068 165.49 73.3078C166.024 72.905 166.292 72.3164 166.292 71.5438C166.292 70.9315 166.128 70.4614 165.804 70.1297C165.483 69.7999 164.805 69.4774 163.77 69.1603L162.086 68.6573C160.862 68.2838 159.998 67.8227 159.499 67.2724C159.003 66.7185 158.755 65.9586 158.755 64.9909C158.755 63.9085 159.138 63.0666 159.907 62.4689C160.68 61.8712 161.76 61.5724 163.151 61.5724C163.743 61.5724 164.392 61.638 165.097 61.7692C165.806 61.8967 166.562 62.0808 167.364 62.3232V65.042H166.394C166.296 64.1436 165.995 63.4931 165.49 63.0885C164.984 62.6858 164.217 62.4835 163.187 62.4835C162.283 62.4835 161.594 62.6694 161.124 63.0375C160.658 63.4074 160.425 63.9413 160.425 64.6411C160.425 65.2534 160.6 65.7344 160.949 66.0843C161.303 66.4305 162.054 66.7731 163.202 67.1121L164.783 67.5858C165.944 67.9357 166.77 68.3804 167.262 68.9197C167.757 69.4555 168.005 70.1771 168.005 71.0846C168.005 72.3237 167.606 73.2567 166.81 73.8836C166.017 74.5104 164.838 74.8239 163.275 74.8239C162.569 74.8239 161.853 74.751 161.124 74.6052C160.399 74.4649 159.661 74.248 158.908 73.9565Z" fill="#EEEBDD"/>
<path d="M186.652 74.576V73.6722H188.284V62.8188H184.531V64.816H183.474V61.7983H194.823V64.816H193.773V62.8188H190.012V73.6722H191.645V74.576H186.652Z" fill="#EEEBDD"/>
<path d="M216.199 73.9055C217.599 73.9055 218.652 73.428 219.363 72.4695C220.077 71.5074 220.434 70.0842 220.434 68.1981C220.434 66.3139 220.077 64.8889 219.363 63.9267C218.652 62.9646 217.599 62.4835 216.199 62.4835C214.794 62.4835 213.736 62.9646 213.021 63.9267C212.311 64.8889 211.957 66.3139 211.957 68.1981C211.957 70.0842 212.311 71.5074 213.021 72.4695C213.736 73.428 214.794 73.9055 216.199 73.9055ZM216.199 74.8239C215.334 74.8239 214.537 74.6817 213.809 74.4011C213.08 74.115 212.438 73.6941 211.884 73.1401C211.246 72.4987 210.773 71.7752 210.463 70.968C210.151 70.1571 209.996 69.2332 209.996 68.1981C209.996 67.1686 210.151 66.2483 210.463 65.4356C210.773 64.6192 211.246 63.8939 211.884 63.2562C212.442 62.6985 213.081 62.2776 213.801 61.9952C214.519 61.7145 215.319 61.5724 216.199 61.5724C218.054 61.5724 219.552 62.181 220.689 63.3946C221.83 64.6101 222.402 66.2119 222.402 68.1981C222.402 69.2241 222.244 70.1479 221.928 70.968C221.617 71.7843 221.141 72.5096 220.5 73.1401C219.94 73.6995 219.301 74.1205 218.583 74.4011C217.868 74.6817 217.074 74.8239 216.199 74.8239Z" fill="#EEEBDD"/>
<path d="M245.793 68.2346C246.191 68.3421 246.533 68.5261 246.821 68.7885C247.107 69.0473 247.364 69.4117 247.594 69.8819L249.452 73.6722H251.012V74.576H247.995L246.005 70.5088C245.62 69.7215 245.268 69.2149 244.948 68.9853C244.631 68.7521 244.193 68.6355 243.636 68.6355H241.726V73.6722H243.534V74.576H238.366V73.6722H239.991V62.7168H238.366V61.7983H244.838C246.081 61.7983 247.042 62.0972 247.718 62.6949C248.392 63.289 248.731 64.129 248.731 65.2169C248.731 66.0971 248.483 66.7895 247.987 67.2943C247.495 67.7954 246.765 68.1088 245.793 68.2346ZM241.726 67.7243H244.248C245.108 67.7243 245.744 67.5202 246.158 67.1121C246.57 66.7039 246.777 66.0734 246.777 65.2169C246.777 64.3623 246.57 63.7336 246.158 63.329C245.744 62.9209 245.108 62.7168 244.248 62.7168H241.726V67.7243Z" fill="#EEEBDD"/>
<path d="M268.114 69.9475H272.809L270.461 63.8757L268.114 69.9475ZM264.506 74.576V73.6722H265.629L270.177 61.7983H271.613L276.176 73.6722H277.437V74.576H272.787V73.6722H274.208L273.137 70.8659H267.765L266.693 73.6722H268.1V74.576H264.506Z" fill="#EEEBDD"/>
<path d="M292.134 74.576V73.6722H293.854V62.7168H292.134V61.7983H295.414L303.075 71.8791V62.7168H301.362V61.7983H305.845V62.7168H304.125V74.8239H303.09L294.911 64.0579V73.6722H296.632V74.576H292.134Z" fill="#EEEBDD"/>
<path d="M323.978 74.576V73.6722H325.611V62.8188H321.857V64.816H320.8V61.7983H332.149V64.816H331.099V62.8188H327.338V73.6722H328.971V74.576H323.978Z" fill="#EEEBDD"/>
<path d="M347.308 74.576V73.6722H348.934V62.7168H347.308V61.7983H357.593V64.6411H356.536V62.8553H350.668V67.1339H354.852V65.5303H355.902V69.7726H354.852V68.1763H350.668V73.5264H356.675V71.7333H357.724V74.576H347.308Z" fill="#EEEBDD"/>
</g>
<defs>
<clipPath id="clip0_556_502">
<rect width="387.816" height="86" fill="white"/>
</clipPath>
</defs>
</svg>
